<svg width="200" height="150" viewBox="0 0 200 150" xmlns="http://www.w3.org/2000/svg">
  <!-- Robot Body -->
  <rect x="60" y="50" width="80" height="60" fill="#D1D5DB" stroke="#374151" stroke-width="2"/>
  
  <!-- Robot Head -->
  <rect x="75" y="30" width="50" height="30" fill="#D1D5DB" stroke="#374151" stroke-width="2"/>
  
  <!-- Robot Eyes -->
  <circle cx="90" cy="45" r="5" fill="#1F2937"/>
  <circle cx="110" cy="45" r="5" fill="#1F2937"/>
  
  <!-- Glasses -->
  <rect x="85" y="40" width="10" height="10" fill="transparent" stroke="#1F2937" stroke-width="2"/>
  <rect x="105" y="40" width="10" height="10" fill="transparent" stroke="#1F2937" stroke-width="2"/>
  
  <!-- Robot Arms -->
  <rect x="45" y="70" width="15" height="5" fill="#D1D5DB" stroke="#374151" stroke-width="2"/>
  <rect x="140" y="70" width="15" height="5" fill="#D1D5DB" stroke="#374151" stroke-width="2"/>
  
  <!-- Flying Resumes -->
  <rect x="20" y="10" width="25" height="15" fill="#60A5FA" transform="rotate(-10 32,17)" />
  <rect x="150" y="10" width="25" height="15" fill="#60A5FA" transform="rotate(10 162,17)" />
  <rect x="170" y="90" width="20" height="15" fill="#60A5FA" transform="rotate(-15 182,100)" />
  
  <!-- Desk -->
  <rect x="55" y="110" width="90" height="10" fill="#F59E0B" />
  
  <!-- Text -->
  <text x="50" y="140" font-family="Arial" font-size="18" fill="#1E40AF">ResumeHub</text>
  <text x="50" y="155" font-family="Arial" font-size="12" fill="#10B981">AI at Work – CVs at Warp Speed!</text>
</svg>
